<svg id="Layer_1" data-name="Layer 1" xmlns="http://www.w3.org/2000/svg" viewBox="0 0 466.13 489.16"><title>brush_white</title><g id="Layer_20" data-name="Layer 20"><path d="M486.62,73.1,410.15,34.87A47.59,47.59,0,0,0,405.78,31l-10.52-8.27A48.45,48.45,0,0,0,365,12.35c-16.55,0-32.81,8.09-43.47,21.67L199.74,189c-2.66,3.38-4.53,9.12-8.51,21.78-6.63,21.17-17.75,56.57-39,88.49-22.46,33.69-49.88,68.59-74.07,99.37-16.94,21.56-31.57,40.19-41.46,54.54-10.61,15.4-19.31,29.86-9.35,37.69l10.53,8.27a11.17,11.17,0,0,0,7,2.37c12.15,0,28.06-18.9,74.13-77.34C143.52,393,171.38,357.65,198.63,328a220.29,220.29,0,0,1,23.88-22.25l50.74,39.87c3.3,2.59,8.7,1.24,12.06-3a11.62,11.62,0,0,0,2.5-6l.06.11c2,3.71,7.46,4.64,12.27,2.1s7.09-7.63,5.13-11.33l-.43-.81a10.56,10.56,0,0,0,8.55-4.34,12.25,12.25,0,0,0,2-3.8l.92,2.25c1.57,3.88,7,5.37,12,3.31s7.83-6.87,6.24-10.76L334,312c3.24,1.05,7.43-.49,10.21-4a12.68,12.68,0,0,0,1.14-1.71l1.34,1c3.3,2.61,8.71,1.24,12.07-3s3.41-9.85.11-12.43l-2.52-2-9.64,12.26a7.13,7.13,0,0,0-2.39-6.59l-50.47-39.67,5.47-7,50.48,39.66c3.3,2.61,8.71,1.25,12.06-3a11.85,11.85,0,0,0,2.43-5.45l2.37,1.85c3.29,2.58,8.7,1.23,12-3s3.41-9.84.11-12.44l-2.3-1.82a11.85,11.85,0,0,0,4.6-3.6,11.09,11.09,0,0,0,2.5-7.87l2.52,2c3.31,2.59,8.7,1.24,12.07-3s3.41-9.85.1-12.43L396,237.78a11.25,11.25,0,0,0,6.73-4.22,11.5,11.5,0,0,0,2.53-6.65l1.89,1.48c3.3,2.6,8.7,1.23,12.06-3s3.41-9.86.11-12.44l-2.15-1.68a11.29,11.29,0,0,0,6.36-4.16,11.69,11.69,0,0,0,2.52-6.22l1.7,1.33c3.3,2.58,8.69,1.23,12.06-3s3.4-9.85.11-12.44l-2.36-1.86a11.19,11.19,0,0,0,6.78-4.24,11.37,11.37,0,0,0,2.55-7l2,1.59c3.3,2.6,8.71,1.24,12.06-3s3.41-9.86.12-12.43l-2.52-2-11.75,15a6.56,6.56,0,0,0-2.38-4.57L394,128.47l9.15-11.65,50.49,39.69c3.3,2.58,8.7,1.23,12.06-3.06a10.71,10.71,0,0,0,2.33-8.8l1.22.66c3.69,2,8.78-.26,11.36-5s1.7-10.27-2-12.27l-1.77-1a12.22,12.22,0,0,0,.88-1c3.37-4.28,3.41-9.83.11-12.44L468,105.87l2.77,1.49c3.69,2,8.8-.26,11.38-5s1.7-10.27-2-12.27l-.45-.25a11.11,11.11,0,0,0,6.83-4.27C489.88,81.28,489.92,75.69,486.62,73.1ZM287.52,333.28a6.25,6.25,0,0,0-2.1-3.15l-46.58-36.6c4.08-2.83,8.06-5.47,11.89-7.9l50.58,39.76c.15.12.31.22.46.32Zm28.15-15.68c.69-3,0-6-2.18-7.72l-44.73-35.15,3.07-1.79c2.87-1.67,5.33-3.1,7.44-4.37a6.1,6.1,0,0,0,1.77,2.27l51,40.07Zm48.69-37.93a7.12,7.12,0,0,0-2.38-6.58L311.5,233.41l7.1-9,50.48,39.68a7.14,7.14,0,0,0,7,.75Zm19.27-26.53a6.6,6.6,0,0,0-2.39-4.58l-50.48-39.67,9.41-12,50.48,39.68a6.57,6.57,0,0,0,5,1.25Zm21.58-27.47a6.6,6.6,0,0,0-2.38-4.56l-50.49-39.67,8.64-11,50.49,39.67a6.59,6.59,0,0,0,5,1.25Zm27.07-42a6.58,6.58,0,0,0,5,1.23L426,199.19a6.57,6.57,0,0,0-2.39-4.57l-50.48-39.68,8.63-11ZM474.41,129l-7.33,13.54a6,6,0,0,0-1.33-1.48L415.1,101.2a57.5,57.5,0,0,0,4.51-8.27l46,36.16C468,130.93,471.42,130.76,474.41,129Zm-6.49-23.12L424.4,71.63a53.17,53.17,0,0,0-1.18-12.46l51.23,29.43a6,6,0,0,0,2.22,1.08Z" transform="translate(-22.94 -12.35)" style="fill:#fff"/></g></svg>